<svg width="100" height="100" viewBox="0 0 100 100" fill="none" xmlns="http://www.w3.org/2000/svg" style="width: 150px; height: 150px;"><style>
     .line-devices2 {animation:line-devices2 3s infinite; stroke-dasharray: 140; stroke-dashoffset: 140;}
     @keyframes line-devices2 {
         20%{stroke-dashoffset: 140;}
         60%{stroke-dashoffset: 0;}
         100%{stroke-dashoffset: 0;}
     }
     @media (prefers-reduced-motion: reduce) {
         .line-devices2 {
             animation: none;
         }
     }
    </style><g class="line-devices2" style="animation-duration: 3s;"><path class="fill1" d="M24 19H75C76.1046 19 77 19.8954 77 21V58V64C77 65.1046 76.1046 66 75 66H58.5V74H66C66.5523 74 67 74.4477 67 75V79.5C67 80.0523 66.5523 80.5 66 80.5H31C30.4477 80.5 30 80.0523 30 79.5V75C30 74.4477 30.4477 74 31 74H40V66H24C22.8954 66 22 65.1046 22 64V58V21C22 19.8954 22.8954 19 24 19Z" fill="#fff" stroke-width="2px"></path><path class="stroke1" d="M22 58V64C22 65.1046 22.8954 66 24 66H40M22 58V21C22 19.8954 22.8954 19 24 19H75C76.1046 19 77 19.8954 77 21V58M22 58H77M77 58V64C77 65.1046 76.1046 66 75 66H58.5M58.5 66V74M58.5 66H40M58.5 74H66C66.5523 74 67 74.4477 67 75V79.5C67 80.0523 66.5523 80.5 66 80.5H31C30.4477 80.5 30 80.0523 30 79.5V75C30 74.4477 30.4477 74 31 74H40M58.5 74H40M40 74V66" stroke="#000" stroke-width="2px"></path></g></svg>